# xmcd CD database file generated by OrangeCD 6.1
#
# Track frame offsets:
#	150
#	12822
#	27025
#	41473
#	53599
#	64361
#	75654
#	89804
#	104626
#	123830
#	134416
#	143341
#	154248
#	166346
#	178198
#	194622
#	205945
#	217663
#	229891
#	241286
#	253602
#	266421
#	285776
#	297159
#
# Disc length: 4069 seconds
#
# Revision: 0
# Processed by: cddbd v1.5.2PL0 Copyright (c) Steve Scherf et al.
# Submitted via: OrangeCD 6.1
#
DISCID=500fe318
DTITLE=Various Artist - Country Collection
DYEAR=2007
DGENRE=Country
TTITLE0=Ann Murray - All the Time
TTITLE1=Barbara Mandrell - Almost Persuaded
TTITLE2=Barbara Fairchild - Baby Doll
TTITLE3=Loretta Lynn - Blue Kentucky Girl
TTITLE4=Kitty Wells - Break My Mind
TTITLE5=Barbara Fairchild - Cheatin' Is
TTITLE6=Loretta Lynn - Coal Miner's Daughter
TTITLE7=Tammy Wynette - Crying in the Rain
TTITLE8=Barbara Fairchild - Drifter
TTITLE9=Ann Murray - For Baby
TTITLE10=Kitty Wells - I'll Repossess My Heart
TTITLE11=Dolly Parton - It Wasn't God Who Made Honky Tonk Angels
TTITLE12=Lynn Anderson - I've Never Loved Anyone More
TTITLE13=Ann Murray - Last Thing on My Mind
TTITLE14=Barbara Fairchild - Love Is Looking In Someone's Eyes
TTITLE15=Loretta Lynn - Love Is the Foundation
TTITLE16=Barbara Mandrell - Lovin' You Is Worth It
TTITLE17=Barbara Mandrell - Password
TTITLE18=Barbara Mandrell - Playing Around with Love
TTITLE19=Lynn Anderson - Rose Garden
TTITLE20=Barbara Fairchild - There Ain't No Way
TTITLE21=Barbara Fairchild - Too Old for This Dress
TTITLE22=Barbara Mandrell - We've Got Everything But Love
TTITLE23=Tammy Wynette - When the Grass Grows over Me
EXTD=
EXTT0=
EXTT1=
EXTT2=
EXTT3=
EXTT4=
EXTT5=
EXTT6=
EXTT7=
EXTT8=
EXTT9=
EXTT10=
EXTT11=
EXTT12=
EXTT13=
EXTT14=
EXTT15=
EXTT16=
EXTT17=
EXTT18=
EXTT19=
EXTT20=
EXTT21=
EXTT22=
EXTT23=
PLAYORDER=
